<mxfile host="app.diagrams.net" modified="2020-11-27T06:50:01.389Z" agent="5.0 (Windows NT 6.1; Win64; x64) AppleWebKit/537.36 (KHTML, like Gecko) Chrome/86.0.4240.198 Safari/537.36" etag="V5shIr0woATyqnCfvlV1" version="13.10.3" type="github">
  <diagram id="ZScdvCgDGMcKz94PeANQ" name="Page-1">
    <mxGraphModel dx="868" dy="425" grid="1" gridSize="10" guides="1" tooltips="1" connect="1" arrows="1" fold="1" page="1" pageScale="1" pageWidth="1169" pageHeight="827" math="0" shadow="0">
      <root>
        <mxCell id="0" />
        <mxCell id="1" parent="0" />
        <mxCell id="yvNyW9VneX38R3PxlrBu-1" style="edgeStyle=orthogonalEdgeStyle;rounded=0;orthogonalLoop=1;jettySize=auto;html=1;exitX=0.5;exitY=1;exitDx=0;exitDy=0;entryX=0.5;entryY=0;entryDx=0;entryDy=0;" edge="1" parent="1" source="yvNyW9VneX38R3PxlrBu-2" target="yvNyW9VneX38R3PxlrBu-4">
          <mxGeometry relative="1" as="geometry" />
        </mxCell>
        <mxCell id="yvNyW9VneX38R3PxlrBu-2" value="&lt;div style=&quot;text-align: left&quot;&gt;&lt;span&gt;&lt;font style=&quot;font-size: 16px&quot;&gt;&lt;b&gt;交通发布段车速状态数据&lt;/b&gt;&lt;/font&gt;&lt;/span&gt;&lt;/div&gt;&lt;div style=&quot;text-align: left&quot;&gt;&lt;span&gt;&lt;font size=&quot;3&quot;&gt;&lt;b&gt;全市地磁传感器数据&lt;/b&gt;&lt;/font&gt;&lt;/span&gt;&lt;/div&gt;&lt;div style=&quot;text-align: left&quot;&gt;&lt;span&gt;&lt;font size=&quot;3&quot;&gt;&lt;b&gt;快速路交通数据&lt;/b&gt;&lt;/font&gt;&lt;/span&gt;&lt;/div&gt;" style="rounded=1;whiteSpace=wrap;html=1;fontSize=12;glass=0;strokeWidth=1;shadow=0;" vertex="1" parent="1">
          <mxGeometry x="90" y="154" width="190" height="70" as="geometry" />
        </mxCell>
        <mxCell id="yvNyW9VneX38R3PxlrBu-3" style="edgeStyle=orthogonalEdgeStyle;rounded=0;orthogonalLoop=1;jettySize=auto;html=1;exitX=1;exitY=0.5;exitDx=0;exitDy=0;" edge="1" parent="1" source="yvNyW9VneX38R3PxlrBu-4">
          <mxGeometry relative="1" as="geometry">
            <mxPoint x="645" y="284" as="targetPoint" />
          </mxGeometry>
        </mxCell>
        <mxCell id="yvNyW9VneX38R3PxlrBu-4" value="&lt;font style=&quot;font-size: 14px&quot;&gt;&lt;b&gt;全路网交通&lt;br&gt;流数据接口&lt;/b&gt;&lt;/font&gt;" style="rounded=1;whiteSpace=wrap;html=1;" vertex="1" parent="1">
          <mxGeometry x="130" y="264" width="110" height="40" as="geometry" />
        </mxCell>
        <mxCell id="yvNyW9VneX38R3PxlrBu-5" style="edgeStyle=orthogonalEdgeStyle;rounded=0;orthogonalLoop=1;jettySize=auto;html=1;exitX=1;exitY=0.5;exitDx=0;exitDy=0;entryX=0.5;entryY=1;entryDx=0;entryDy=0;" edge="1" parent="1" source="yvNyW9VneX38R3PxlrBu-6">
          <mxGeometry relative="1" as="geometry">
            <mxPoint x="705" y="314" as="targetPoint" />
          </mxGeometry>
        </mxCell>
        <mxCell id="yvNyW9VneX38R3PxlrBu-6" value="&lt;font style=&quot;font-size: 16px&quot;&gt;&lt;b&gt;典型路口视频数据&lt;/b&gt;&lt;/font&gt;" style="rounded=1;whiteSpace=wrap;html=1;fontSize=16;" vertex="1" parent="1">
          <mxGeometry x="110" y="354" width="160" height="30" as="geometry" />
        </mxCell>
        <mxCell id="yvNyW9VneX38R3PxlrBu-7" style="edgeStyle=orthogonalEdgeStyle;rounded=0;orthogonalLoop=1;jettySize=auto;html=1;exitX=0;exitY=0.5;exitDx=0;exitDy=0;entryX=1;entryY=0.5;entryDx=0;entryDy=0;" edge="1" parent="1" source="yvNyW9VneX38R3PxlrBu-8" target="yvNyW9VneX38R3PxlrBu-2">
          <mxGeometry relative="1" as="geometry" />
        </mxCell>
        <mxCell id="yvNyW9VneX38R3PxlrBu-8" value="&lt;div&gt;&lt;/div&gt;&lt;font style=&quot;font-size: 18px&quot;&gt;&lt;div&gt;&lt;/div&gt;&lt;b&gt;综合交通模型数据&lt;/b&gt;&lt;br&gt;&lt;/font&gt;" style="rounded=1;whiteSpace=wrap;html=1;align=center;" vertex="1" parent="1">
          <mxGeometry x="382" y="169" width="166" height="40" as="geometry" />
        </mxCell>
        <mxCell id="yvNyW9VneX38R3PxlrBu-9" value="&lt;font style=&quot;font-size: 14px&quot;&gt;&lt;b&gt;车速、车流量、车型&lt;/b&gt;&lt;/font&gt;" style="rounded=1;whiteSpace=wrap;html=1;" vertex="1" parent="1">
          <mxGeometry x="382" y="253" width="150" height="30" as="geometry" />
        </mxCell>
        <mxCell id="yvNyW9VneX38R3PxlrBu-10" style="edgeStyle=orthogonalEdgeStyle;rounded=0;orthogonalLoop=1;jettySize=auto;html=1;exitX=0.5;exitY=1;exitDx=0;exitDy=0;entryX=0.5;entryY=0;entryDx=0;entryDy=0;" edge="1" parent="1" source="yvNyW9VneX38R3PxlrBu-11">
          <mxGeometry relative="1" as="geometry">
            <mxPoint x="705" y="254" as="targetPoint" />
          </mxGeometry>
        </mxCell>
        <mxCell id="yvNyW9VneX38R3PxlrBu-11" value="&lt;div style=&quot;text-align: left&quot;&gt;&lt;span style=&quot;font-size: 14px&quot;&gt;&lt;b&gt;车辆技术分布&lt;/b&gt;&lt;/span&gt;&lt;/div&gt;&lt;font style=&quot;font-size: 14px&quot;&gt;&lt;b&gt;&lt;div style=&quot;text-align: left&quot;&gt;&lt;span&gt;车辆工况&lt;/span&gt;&lt;/div&gt;&lt;div style=&quot;text-align: left&quot;&gt;&lt;span&gt;修正因子&lt;/span&gt;&lt;/div&gt;&lt;div style=&quot;text-align: left&quot;&gt;&lt;span&gt;环保政策&lt;/span&gt;&lt;/div&gt;&lt;/b&gt;&lt;/font&gt;" style="rounded=1;whiteSpace=wrap;html=1;" vertex="1" parent="1">
          <mxGeometry x="650" y="154" width="110" height="70" as="geometry" />
        </mxCell>
        <mxCell id="yvNyW9VneX38R3PxlrBu-12" value="&lt;font style=&quot;font-size: 14px&quot;&gt;&lt;b&gt;车排放技术匹配校正&lt;/b&gt;&lt;/font&gt;" style="rounded=1;whiteSpace=wrap;html=1;" vertex="1" parent="1">
          <mxGeometry x="382" y="338" width="150" height="30" as="geometry" />
        </mxCell>
        <mxCell id="yvNyW9VneX38R3PxlrBu-13" value="&lt;font style=&quot;font-size: 14px&quot;&gt;&lt;b&gt;路网匹配&lt;/b&gt;&lt;/font&gt;" style="rounded=1;whiteSpace=wrap;html=1;" vertex="1" parent="1">
          <mxGeometry x="300" y="158" width="60" height="30" as="geometry" />
        </mxCell>
        <mxCell id="yvNyW9VneX38R3PxlrBu-14" value="&lt;font style=&quot;font-size: 14px&quot;&gt;&lt;b&gt;定期更新&lt;/b&gt;&lt;/font&gt;" style="rounded=1;whiteSpace=wrap;html=1;" vertex="1" parent="1">
          <mxGeometry x="427" y="370" width="60" height="30" as="geometry" />
        </mxCell>
        <mxCell id="yvNyW9VneX38R3PxlrBu-20" value="&lt;font style=&quot;font-size: 18px&quot;&gt;&lt;b&gt;机动车污染物排放模型&lt;/b&gt;&lt;/font&gt;" style="shape=process;whiteSpace=wrap;html=1;backgroundOutline=1;" vertex="1" parent="1">
          <mxGeometry x="645" y="254" width="120" height="60" as="geometry" />
        </mxCell>
      </root>
    </mxGraphModel>
  </diagram>
</mxfile>
